<svg width="28" height="32" viewBox="0 0 28 32" fill="none" xmlns="http://www.w3.org/2000/svg">
<path d="M19.4031 14.2013C19.4031 12.2914 18.6444 10.4597 17.2939 9.1092C15.9434 7.7587 14.1117 7 12.2018 7C10.2919 7 8.46025 7.7587 7.10975 9.1092C5.75924 10.4597 5.00054 12.2914 5.00054 14.2013C5.00054 22.6028 1.3999 25.0032 1.3999 25.0032H23.0037C23.0037 25.0032 19.4031 22.6028 19.4031 14.2013Z" stroke="#0095F6" stroke-linecap="round" stroke-linejoin="round"/>
<path d="M14.2782 29.804C14.0672 30.1678 13.7643 30.4697 13.3999 30.6796C13.0355 30.8895 12.6224 31 12.2019 31C11.7813 31 11.3682 30.8895 11.0038 30.6796C10.6394 30.4697 10.3365 30.1678 10.1255 29.804" stroke="#0095F6" stroke-linecap="round" stroke-linejoin="round"/>
<rect x="12" width="16" height="16" rx="8" fill="#0095F6"/>
<path d="M15.904 10.5V5.1H17.188V10.5H15.904ZM13.78 8.4V7.2H19.312V8.4H13.78ZM23.4381 3.48C24.2061 3.48 24.8581 3.644 25.3941 3.972C25.9381 4.292 26.3541 4.76 26.6421 5.376C26.9301 5.992 27.0741 6.752 27.0741 7.656C27.0741 8.616 26.8981 9.428 26.5461 10.092C26.2021 10.756 25.7221 11.26 25.1061 11.604C24.4901 11.948 23.7741 12.12 22.9581 12.12C22.5341 12.12 22.1301 12.076 21.7461 11.988C21.3621 11.9 21.0301 11.764 20.7501 11.58L21.3261 10.404C21.5581 10.556 21.8101 10.664 22.0821 10.728C22.3541 10.784 22.6341 10.812 22.9221 10.812C23.7141 10.812 24.3421 10.568 24.8061 10.08C25.2701 9.592 25.5021 8.872 25.5021 7.92C25.5021 7.768 25.4981 7.592 25.4901 7.392C25.4821 7.184 25.4541 6.976 25.4061 6.768L25.8861 7.296C25.7501 7.624 25.5541 7.9 25.2981 8.124C25.0421 8.34 24.7421 8.504 24.3981 8.616C24.0541 8.728 23.6741 8.784 23.2581 8.784C22.7141 8.784 22.2221 8.68 21.7821 8.472C21.3501 8.256 21.0061 7.956 20.7501 7.572C20.4941 7.18 20.3661 6.724 20.3661 6.204C20.3661 5.644 20.5021 5.164 20.7741 4.764C21.0461 4.356 21.4141 4.04 21.8781 3.816C22.3501 3.592 22.8701 3.48 23.4381 3.48ZM23.5221 4.704C23.2021 4.704 22.9181 4.764 22.6701 4.884C22.4221 4.996 22.2261 5.16 22.0821 5.376C21.9461 5.584 21.8781 5.836 21.8781 6.132C21.8781 6.572 22.0301 6.92 22.3341 7.176C22.6381 7.432 23.0461 7.56 23.5581 7.56C23.8941 7.56 24.1901 7.5 24.4461 7.38C24.7021 7.252 24.9021 7.08 25.0461 6.864C25.1901 6.64 25.2621 6.392 25.2621 6.12C25.2621 5.856 25.1941 5.62 25.0581 5.412C24.9221 5.196 24.7261 5.024 24.4701 4.896C24.2141 4.768 23.8981 4.704 23.5221 4.704Z" fill="white"/>
</svg>
